<?xml version="1.0" encoding="UTF-8" standalone="no"?><!-- Generator: Gravit.io --><svg xmlns="http://www.w3.org/2000/svg" xmlns:xlink="http://www.w3.org/1999/xlink" style="isolation:isolate" viewBox="0 0 500 500" width="500pt" height="500pt"><defs><clipPath id="_clipPath_QHZ7xyGyhGVv3BGd4AeFIqTArLPYnk7A"><rect width="500" height="500"/></clipPath></defs><g clip-path="url(#_clipPath_QHZ7xyGyhGVv3BGd4AeFIqTArLPYnk7A)"><g><path d=" M 325 112 L 354 230 L 254 298 L 321 200 L 283 143 L 325 112 Z " fill="rgb(185,224,242)"/><path d=" M 254 298 L 321 200 L 283 143 L 254 164 L 280 182 L 254 298 Z " fill="rgb(133,202,233)"/><path d=" M 183 112 L 154 230 L 254 298 L 187 200 L 225 143 L 183 112 Z " fill="rgb(185,224,242)"/><path d=" M 254 298 L 187 200 L 225 143 L 254 164 L 228 182 L 254 298 Z " fill="rgb(133,202,233)"/><path d=" M 254 298 L 280 182 L 254 164 L 228 182 L 254 298 Z " fill-rule="evenodd" fill="rgb(100,187,227)"/><path d=" M 254 164 L 283 143 L 254 100 L 225 143 L 254 164 Z " fill-rule="evenodd" fill="rgb(185,224,242)"/></g></g></svg>